<svg width="557" height="333" viewBox="0 0 557 333" fill="none" xmlns="http://www.w3.org/2000/svg">
<path d="M175.391 337.371C174.621 337.371 173.928 337.14 173.312 336.678C172.696 336.216 172.285 335.574 172.08 334.753V334.599C167.46 308.984 165.15 279.698 165.15 246.742C165.15 235.089 165.407 223.488 165.92 211.938C167.563 171.077 171.541 130.395 177.855 89.893C178.728 84.657 179.652 79.4723 180.627 74.339C176.777 81.6797 171.105 92.896 163.61 107.988L136.66 162.966C129.114 178.571 122.158 192.252 115.793 204.007C109.479 215.762 104.089 224.566 99.623 230.418L99.084 231.034C98.4167 231.907 97.544 232.805 96.466 233.729C96.158 234.037 95.696 234.345 95.08 234.653C94.5153 234.961 93.7967 235.115 92.924 235.115C92.5133 235.115 92.1283 235.064 91.769 234.961C91.0503 234.704 90.5113 234.371 90.152 233.96C89.5873 233.498 89.151 232.882 88.843 232.112L88.535 231.573C87.9703 229.879 87.6367 228.39 87.534 227.107C87.072 224.335 86.841 220.1 86.841 214.402C86.841 206.907 87.072 199.464 87.534 192.072C88.304 176.98 89.921 156.626 92.385 131.011C96.2863 91.3303 98.5193 68.4357 99.084 62.327C100.573 46.773 101.548 34.1963 102.01 24.597C101.907 24.6483 101.856 24.751 101.856 24.905C97.9547 34.2477 94.2073 43.693 90.614 53.241L57.427 138.865C51.2157 154.573 43.4643 173.464 34.173 195.537C26.8323 212.785 20.3643 226.748 14.769 237.425C9.73833 247.435 6.09367 252.44 3.835 252.44C3.11633 252.44 2.449 252.209 1.833 251.747C0.857666 250.977 0.369999 250.027 0.369999 248.898C0.369999 248.231 0.575332 247.563 0.985999 246.896L1.217 246.588C9.32767 236.937 19.158 219.407 30.708 193.997C39.0753 175.466 47.0063 156.703 54.501 137.71L60.122 123.465L76.446 80.653L89.305 46.311C94.541 32.297 98.006 23.4677 99.7 19.823C100.162 18.6423 100.547 17.821 100.855 17.359C100.906 17.2563 100.958 17.1537 101.009 17.051C101.06 16.897 101.137 16.7687 101.24 16.666C101.343 16.512 101.42 16.3837 101.471 16.281C101.522 16.1783 101.599 16.1013 101.702 16.05C101.805 15.9473 101.882 15.8703 101.933 15.819C101.984 15.7163 102.087 15.6137 102.241 15.511C102.652 15.3057 103.088 15.203 103.55 15.203C104.217 15.203 104.756 15.4853 105.167 16.05C105.629 16.6147 105.886 17.3333 105.937 18.206L106.014 18.591L106.168 20.67C106.168 25.598 105.911 31.8863 105.398 39.535C104.987 46.3623 104.217 56.6803 103.088 70.489L98.237 131.473C96.6457 151.801 95.311 172.129 94.233 192.457C93.771 201.851 93.54 209.166 93.54 214.402C93.54 217.636 93.617 220.459 93.771 222.872C93.8737 224.823 94.002 226.029 94.156 226.491V226.876L94.618 226.337C96.4147 224.078 98.545 221.075 101.009 217.328L103.088 214.171C113.714 196.923 123.904 179.341 133.657 161.426C143.41 143.459 152.702 125.287 161.531 106.91C169.59 90.0213 177.496 72.029 185.247 52.933C185.914 50.161 186.71 47.4147 187.634 44.694C187.788 44.0267 188.019 43.3593 188.327 42.692C188.378 42.5893 188.43 42.461 188.481 42.307C188.532 42.1017 188.635 41.8963 188.789 41.691C188.943 41.229 189.2 40.767 189.559 40.305L190.175 39.612C190.278 39.612 190.38 39.535 190.483 39.381C190.791 39.073 191.202 38.919 191.715 38.919C192.228 38.919 192.973 39.073 193.948 39.381C194.821 40.3563 195.257 41.075 195.257 41.537L195.18 41.999L195.257 42.153L195.18 42.769C195.026 43.385 194.898 43.8213 194.795 44.078C194.128 46.08 193.255 48.236 192.177 50.546C191.304 54.0367 190.483 57.553 189.713 61.095C186.12 77.9837 182.552 97.9523 179.01 121.001C177.573 131.062 176.238 141.149 175.006 151.262C171.413 180.471 169.616 209.731 169.616 239.042C169.616 250.387 169.95 261.731 170.617 273.076C171.695 293.404 174.441 313.424 178.856 333.136L178.933 333.983C178.933 334.753 178.676 335.446 178.163 336.062C177.496 336.935 176.572 337.371 175.391 337.371ZM202.334 195.614H201.41C199.1 195.46 197.2 194.536 195.712 192.842C194.582 191.302 194.018 189.531 194.018 187.529V186.759C194.018 184.808 194.3 182.96 194.865 181.215C195.943 177.776 197.277 174.49 198.869 171.359C199.639 169.819 200.434 168.279 201.256 166.739C202.128 165.199 203.001 163.685 203.874 162.196C204.541 161.221 205.388 160.733 206.415 160.733C206.928 160.733 207.441 160.861 207.955 161.118C208.981 161.837 209.495 162.709 209.495 163.736C209.495 164.249 209.366 164.737 209.11 165.199C209.007 165.25 208.956 165.327 208.956 165.43C204.387 171.59 201.102 177.288 199.1 182.524C198.33 184.629 197.945 186.451 197.945 187.991C197.945 190.968 199.69 192.457 203.181 192.457C204.156 192.457 205.183 192.329 206.261 192.072C209.443 191.353 212.498 190.198 215.424 188.607C222.764 184.757 231.157 179.059 240.603 171.513L240.834 171.436C240.936 171.436 241.013 171.487 241.065 171.59C241.167 171.641 241.219 171.718 241.219 171.821C241.219 171.924 241.167 172.026 241.065 172.129L237.908 174.824L233.211 178.674C230.593 180.83 227.898 182.909 225.126 184.911C222.354 186.913 219.479 188.812 216.502 190.609C213.576 192.406 210.393 193.843 206.954 194.921C205.516 195.383 203.976 195.614 202.334 195.614ZM209.495 157.807H209.187C207.852 157.396 207.185 155.856 207.185 153.187C207.185 152.314 207.236 151.621 207.339 151.108C207.544 150.184 208.032 149.44 208.802 148.875C209.469 148.516 210.136 148.336 210.804 148.336C212.036 148.336 212.985 148.875 213.653 149.953C214.063 150.569 214.269 151.211 214.269 151.878C214.269 152.597 213.935 153.495 213.268 154.573C212.036 156.729 210.778 157.807 209.495 157.807ZM305.032 269.38C297.383 269.38 291.711 267.224 288.015 262.912C286.27 260.807 285.089 258.472 284.473 255.905C284.011 254.262 283.78 252.62 283.78 250.977C283.78 247.794 284.524 244.458 286.013 240.967C290.582 231.214 300.284 221.127 315.119 210.706C328.876 201.055 344.841 191.841 363.013 183.063C377.694 175.671 397.406 167.073 422.149 157.268C418.556 154.958 414.629 153.136 410.368 151.801C401.744 149.183 392.889 147.207 383.803 145.872C369.584 143.767 351.36 141.791 329.133 139.943C315.735 138.711 306.598 137.813 301.721 137.248C292.532 136.375 283.369 134.938 274.232 132.936C269.612 131.961 265.069 130.472 260.603 128.47C258.344 127.443 256.188 125.98 254.135 124.081C253.108 123.106 252.236 121.925 251.517 120.539C251.004 119.307 250.542 117.972 250.131 116.535C249.772 115.098 249.592 113.635 249.592 112.146C249.592 110.965 249.695 109.81 249.9 108.681C250.311 106.063 251.081 103.625 252.21 101.366C257.138 91.4073 267.045 81.269 281.932 70.951C289.581 65.561 297.435 60.633 305.494 56.167C327.413 44.155 350.59 33.837 375.025 25.213C384.111 22.0303 395.225 18.8733 408.366 15.742C426.281 11.276 444.325 7.52866 462.497 4.5C471.583 2.95999 480.772 1.80499 490.063 1.03499C491.962 0.880993 494.093 0.803993 496.454 0.803993C499.329 0.803993 502.024 1.03499 504.539 1.497C507.927 2.11299 509.955 3.80699 510.622 6.579L510.699 7.349C510.699 8.27299 510.545 9.06865 510.237 9.73599C509.57 11.3787 508.8 12.6877 507.927 13.663C507.054 14.6383 506.156 15.5367 505.232 16.358V16.435C504.565 16.9997 503.82 17.282 502.999 17.282C502.126 17.282 501.356 16.9483 500.689 16.281C500.073 15.6137 499.765 14.8693 499.765 14.048C499.765 13.124 500.176 12.2513 500.997 11.43C501.87 10.814 502.665 10.1467 503.384 9.42799C504.103 8.70933 504.565 8.11899 504.77 7.65699L504.924 7.42599C504.462 7.06666 503.897 6.80999 503.23 6.65599C500.817 5.98866 497.635 5.65499 493.682 5.65499H490.294C481.259 6.11699 472.225 7.14366 463.19 8.73499C445.172 11.815 427.257 15.588 409.444 20.054C400.563 22.2613 391.76 24.6997 383.033 27.369C380.877 28.0363 378.747 28.755 376.642 29.525L373.947 30.526C369.327 32.2713 363.86 34.4787 357.546 37.148C329.929 48.7493 305.905 61.6853 285.474 75.956C278.031 81.192 271.28 87.044 265.223 93.512C262.246 96.746 259.782 100.237 257.831 103.984C256.394 106.859 255.675 109.708 255.675 112.531C255.675 114.533 256.06 116.381 256.83 118.075C257.857 120.128 259.936 121.925 263.067 123.465C266.917 125.313 271.049 126.802 275.464 127.931C284.191 130.087 293.123 131.73 302.26 132.859C313.091 134.296 325.642 135.657 339.913 136.94C354.8 138.172 369.635 139.84 384.419 141.945C393.608 143.177 402.668 145.179 411.6 147.951C416.117 149.286 420.455 151.262 424.613 153.88C425.383 154.342 426.102 154.881 426.769 155.497C435.136 152.366 439.602 150.8 440.167 150.8C440.68 150.8 441.142 150.954 441.553 151.262C442.22 151.724 442.554 152.366 442.554 153.187C442.554 153.7 442.4 154.162 442.092 154.573C441.835 154.984 441.45 155.266 440.937 155.42L440.783 155.497C437.087 156.421 433.442 157.448 429.849 158.577L430.003 158.808C431.748 161.015 432.724 163.608 432.929 166.585C432.929 168.228 432.878 169.485 432.775 170.358C432.262 174.054 431.312 177.57 429.926 180.907C428.129 185.322 425.896 189.48 423.227 193.381C417.94 201.184 411.934 208.345 405.209 214.864C391.862 227.903 377.207 239.196 361.242 248.744C341.171 260.859 323.846 267.66 309.267 269.149C307.83 269.303 306.418 269.38 305.032 269.38ZM505.001 7.58C505.001 7.52866 504.975 7.50298 504.924 7.50298L505.001 7.58ZM304.647 264.375C305.982 264.375 307.342 264.298 308.728 264.144C316.274 263.271 324.821 260.782 334.369 256.675C350.282 249.796 365.836 240.556 381.031 228.955C397.252 216.84 410.034 204.135 419.377 190.84C421.892 187.144 424.023 183.268 425.768 179.213C427.257 175.722 428.129 172.617 428.386 169.896C428.489 169.331 428.54 168.792 428.54 168.279L428.617 167.509C428.617 165.25 427.975 163.248 426.692 161.503L426.307 161.041C426.05 160.682 425.768 160.348 425.46 160.04C414.013 163.736 401.898 168.382 389.116 173.977C372.279 181.318 355.955 189.531 340.144 198.617C321.099 209.654 306.752 220.69 297.101 231.727C294.175 235.115 291.839 238.785 290.094 242.738C288.965 245.51 288.4 248.102 288.4 250.515C288.4 254.057 289.478 257.163 291.634 259.832C292.917 261.218 294.483 262.27 296.331 262.989C298.949 263.913 301.721 264.375 304.647 264.375ZM446.495 212.785C446.084 212.734 445.75 212.554 445.494 212.246C445.237 211.938 445.109 211.579 445.109 211.168C449.421 184.115 459.508 150.851 475.37 111.376C451.346 113.224 434.406 115.329 424.55 117.69C423.164 118.203 422.419 118.511 422.317 118.614C421.752 119.384 421.033 119.769 420.161 119.769C419.801 119.769 419.442 119.692 419.083 119.538C418.056 118.973 417.543 118.203 417.543 117.228C417.543 116.304 417.928 115.508 418.698 114.841C418.8 114.79 418.903 114.738 419.006 114.687C419.057 114.636 419.108 114.584 419.16 114.533C419.211 114.482 419.262 114.43 419.314 114.379C419.365 114.328 419.442 114.302 419.545 114.302C420.161 113.891 421.136 113.481 422.471 113.07L423.164 112.839C426.192 112.069 430.53 111.325 436.177 110.606C446.187 109.477 459.764 108.424 476.91 107.449C478.193 104.215 479.528 101.007 480.914 97.824C483.48 91.664 486.073 85.581 488.691 79.575L492.849 70.489L493.927 68.256C494.697 66.5107 495.518 64.8167 496.391 63.174C496.596 62.712 497.007 62.019 497.623 61.095C498.29 60.171 499.111 59.709 500.087 59.709C500.6 59.709 501.113 59.863 501.627 60.171C502.551 60.8383 503.013 61.6597 503.013 62.635C503.013 63.4563 502.602 64.4317 501.781 65.561L501.704 65.869C500.985 67.0497 500.189 68.5383 499.317 70.335L496.314 76.572C493.234 82.886 489.692 90.6373 485.688 99.826L482.454 107.141C506.991 106.012 531.503 105.165 555.989 104.6C556.245 104.6 556.451 104.703 556.605 104.908C556.81 105.062 556.913 105.267 556.913 105.524C556.913 105.729 556.836 105.935 556.682 106.14C556.528 106.345 556.322 106.448 556.066 106.448C533.274 107.475 510.507 108.809 487.767 110.452L480.837 110.914C477.295 119.333 473.881 127.777 470.596 136.247C459.508 164.429 451.962 189.531 447.958 211.553C447.906 211.912 447.752 212.195 447.496 212.4C447.188 212.657 446.854 212.785 446.495 212.785ZM488.066 197.385C487.193 197.385 486.141 197.205 484.909 196.846C484.241 196.692 483.625 196.384 483.061 195.922C482.291 195.357 481.7 194.716 481.29 193.997C480.417 192.56 479.878 191.071 479.673 189.531C479.519 188.453 479.442 187.375 479.442 186.297C479.442 181.574 480.751 177.057 483.369 172.745C484.909 170.127 486.936 167.92 489.452 166.123C492.275 164.172 495.278 163.094 498.461 162.889C499.128 162.889 499.718 163.12 500.232 163.582C500.796 164.044 501.079 164.737 501.079 165.661C501.951 166.482 502.567 167.509 502.927 168.741C503.44 170.538 503.697 172.463 503.697 174.516C503.697 175.389 503.645 176.287 503.543 177.211C505.493 178.084 507.803 178.52 510.473 178.52C512.526 178.52 514.605 178.263 516.71 177.75C522.356 176.518 527.13 174.413 531.032 171.436C531.083 171.385 531.16 171.359 531.263 171.359C531.622 171.359 531.802 171.539 531.802 171.898C531.802 172.001 531.75 172.103 531.648 172.206C529.543 173.951 527.233 175.414 524.718 176.595C519.482 178.956 514.605 180.137 510.088 180.137C507.572 180.086 505.314 179.701 503.312 178.982C502.85 182.421 501.746 185.707 500.001 188.838C498.615 191.302 496.741 193.432 494.38 195.229C492.429 196.666 490.324 197.385 488.066 197.385ZM488.451 194.151C489.939 194.151 491.377 193.715 492.763 192.842C494.816 191.507 496.536 189.736 497.922 187.529C499.308 185.322 500.36 182.986 501.079 180.522L501.695 178.135L500.848 177.596C500.232 177.134 499.693 176.646 499.231 176.133C496.921 173.926 495.766 171.462 495.766 168.741C494.534 169.1 493.353 169.639 492.224 170.358C488.374 172.771 485.679 176.595 484.139 181.831C483.625 183.679 483.369 185.501 483.369 187.298C483.369 189.351 483.677 190.968 484.293 192.149C484.703 192.919 485.165 193.381 485.679 193.535L485.987 193.689C486.808 193.997 487.629 194.151 488.451 194.151ZM502.003 176.364C502.208 175.44 502.336 173.951 502.388 171.898C502.388 169.691 501.9 167.894 500.925 166.508C500.514 167.483 499.795 168.074 498.769 168.279C498.05 168.279 497.434 168.356 496.921 168.51C496.921 169.126 497.049 169.716 497.306 170.281C498.435 172.848 499.924 174.824 501.772 176.21C501.874 176.313 501.951 176.364 502.003 176.364Z" fill="black"/>
</svg>
